# xmcd
#
# Track frame offsets: 
#        150
#        31837
#        57527
#        95730
#        130995
#        157787
#        186465
#        219890
#        248172
#
# Disc length: 3597 seconds
#
# Revision: 5
# Processed by: cddbd v1.5.2PL0 Copyright (c) Steve Scherf et al.
# Submitted via: ExactAudioCopy v1.1
#
DISCID=790e0b09
DTITLE=St. Germain - Tourist
DYEAR=2000
DGENRE=Jazz
TTITLE0=Rose Rouge
TTITLE1=Montego Bay Spleen
TTITLE2=So Flute
TTITLE3=Land Of...
TTITLE4=Latin Note
TTITLE5=Sure Thing
TTITLE6=Pont Des Arts
TTITLE7=La Goutte D'Or
TTITLE8=What You Think About...
EXTD=
EXTT0=
EXTT1=
EXTT2=
EXTT3=
EXTT4=
EXTT5=
EXTT6=
EXTT7=
EXTT8=
PLAYORDER=
